<svg width="56" height="30" viewBox="0 0 56 30" fill="none" xmlns="http://www.w3.org/2000/svg">
<path d="M45.7592 12.9909C45.5065 12.4776 45.1523 12.0814 44.6959 11.8032C44.2395 11.5249 43.7159 11.3833 43.1251 11.3833C42.5343 11.3833 42.0107 11.5249 41.5543 11.8032C41.0979 12.0814 40.743 12.4776 40.491 12.9909C40.2383 13.5049 40.1123 14.1041 40.1123 14.789V16.3303C40.1123 17.0152 40.2383 17.6143 40.491 18.1283C40.743 18.6417 41.0979 19.0378 41.5543 19.3161C42.0107 19.5944 42.5343 19.7311 43.1251 19.7311C43.7159 19.7311 44.2395 19.5944 44.6959 19.3161C45.1523 19.0378 45.4281 18.7226 45.6808 18.2093C45.8012 17.9644 45.9013 17.6576 45.9636 17.3437L44.5223 17.0131C44.4614 17.3221 44.3515 17.6122 44.1912 17.8187C43.9336 18.1507 43.5549 18.3027 43.1258 18.3027C42.6967 18.3027 42.318 18.1507 42.0604 17.8187C41.8028 17.4874 41.674 17.0131 41.674 16.4245V15.847H46.1393V14.7896C46.1393 14.1048 46.0126 13.5056 45.7606 12.9916L45.7592 12.9909ZM43.1251 12.8173C43.5542 12.8173 43.9329 12.9665 44.1905 13.2929C44.4236 13.5879 44.551 14.0315 44.5734 14.5434H41.6768C41.6992 14.0315 41.8266 13.5886 42.0597 13.2929C42.3173 12.9665 42.696 12.8173 43.1251 12.8173Z" fill="#1069C9"/>
<path d="M34.6334 19.5456V14.2869C34.6334 13.8447 34.758 13.4938 35.0072 13.2351C35.2564 12.9763 35.57 12.8466 35.9494 12.8466C36.3288 12.8466 36.6424 12.9763 36.8916 13.2351C37.1408 13.4938 37.2654 13.8447 37.2654 14.2869V19.5456H38.8243V13.9563C38.8243 13.1472 38.6136 12.516 38.1908 12.0634C37.7687 11.61 37.1947 11.3841 36.4695 11.3841C36.0691 11.3841 35.7142 11.4594 35.3768 11.6233C35.0485 11.783 34.7825 11.9936 34.6341 12.2175V8.21973H33.0752V19.5463H34.6341L34.6334 19.5456Z" fill="#1069C9"/>
<path d="M27.4965 16.4075C27.4965 16.9962 27.6281 17.467 27.8913 17.7941C28.1545 18.1205 28.5353 18.2697 28.9651 18.2697C29.7386 18.2697 30.216 17.7773 30.3987 16.7932L31.8484 17.1301C31.7301 17.9538 31.4298 18.5933 30.9461 19.0481C30.4631 19.5028 29.8023 19.7302 28.9644 19.7302C28.0516 19.7302 27.318 19.4226 26.765 18.8075C26.212 18.1916 25.9355 17.3602 25.9355 16.3113V14.8027C25.9355 13.7537 26.212 12.9224 26.765 12.3065C27.318 11.6914 28.0509 11.3838 28.9644 11.3838C29.8023 11.3838 30.4624 11.6112 30.9461 12.0659C31.4298 12.5206 31.7301 13.1602 31.8484 13.9839L30.3987 14.3208C30.216 13.3367 29.7379 12.8443 28.9651 12.8443C28.5353 12.8443 28.1545 12.9935 27.8913 13.3199C27.6281 13.6463 27.4965 14.1178 27.4965 14.7064V16.4082V16.4075Z" fill="#1069C9"/>
<path d="M21.7218 18.2747C21.292 18.2747 20.914 18.1226 20.6564 17.7906C20.3988 17.4594 20.27 16.9851 20.27 16.3964V14.7107C20.27 14.1221 20.3988 13.6513 20.6564 13.3242C20.914 12.9978 21.2927 12.8485 21.7218 12.8485C22.1509 12.8485 22.5296 12.9978 22.7872 13.3242C23.0448 13.6506 23.1736 14.1221 23.1736 14.7107V16.3964C23.1736 16.9851 23.0448 17.4594 22.7872 17.7906C22.5296 18.1226 22.1509 18.2747 21.7218 18.2747ZM21.7218 19.733C22.3126 19.733 22.8362 19.5963 23.2926 19.3181C23.749 19.0398 24.1032 18.6436 24.3559 18.1303C24.6079 17.6163 24.7346 17.0172 24.7346 16.3323V14.7909C24.7346 14.106 24.6079 13.5069 24.3559 12.9929C24.1032 12.4796 23.749 12.0834 23.2926 11.8051C22.8362 11.5268 22.3126 11.3853 21.7218 11.3853C21.131 11.3853 20.6074 11.5268 20.151 11.8051C19.6946 12.0834 19.3397 12.4796 19.0877 12.9929C18.835 13.5069 18.709 14.106 18.709 14.7909V16.3323C18.709 17.0172 18.835 17.6163 19.0877 18.1303C19.3397 18.6436 19.6946 19.0398 20.151 19.3181C20.6074 19.5963 21.131 19.733 21.7218 19.733Z" fill="#1069C9"/>
<path d="M13.364 13.0084V9.70739H14.9369C15.3597 9.70739 15.6873 9.84269 15.9204 10.1119C16.1535 10.3818 16.2697 10.7968 16.2697 11.3576C16.2697 11.9183 16.1535 12.334 15.9204 12.6039C15.6873 12.8738 15.3597 13.0084 14.9369 13.0084H13.364ZM13.364 19.5456V14.4975H14.7024C15.0867 14.4975 15.3394 14.5902 15.5074 14.7625C15.6754 14.9355 15.7692 15.2152 15.8126 15.6141L16.2515 19.5463H17.8174L17.3463 15.469C17.2917 14.9836 17.2294 14.66 17.0306 14.3754C16.8493 14.1167 16.5931 13.8991 16.29 13.8021C16.7667 13.5755 17.1433 13.2602 17.4198 12.8557C17.6963 12.4512 17.8342 11.8932 17.8342 11.1811C17.8342 10.2647 17.5766 9.5414 17.0621 9.01273C16.5476 8.48406 15.8406 8.21973 14.9411 8.21973H11.8086V19.5463H13.3647L13.364 19.5456Z" fill="#1069C9"/>
<path d="M56 14.728L43.3489 29.228H12.6511L0 14.728L12.6511 0.228027H43.3489L56 14.728ZM42.6748 27.7536L54.0393 14.728L42.6748 1.70244H13.3252L1.9614 14.728L13.3259 27.7536H42.6748Z" fill="#1069C9"/>
</svg>
